<?xml version="1.0" encoding="UTF-8" standalone="no"?>
<!DOCTYPE svg PUBLIC "-//W3C//DTD SVG 1.1//EN" "http://www.w3.org/Graphics/SVG/1.1/DTD/svg11.dtd">
<svg width="100%" height="100%" viewBox="0 0 512 512" version="1.1" xmlns="http://www.w3.org/2000/svg" xmlns:xlink="http://www.w3.org/1999/xlink" xml:space="preserve" xmlns:serif="http://www.serif.com/" style="fill-rule:evenodd;clip-rule:evenodd;stroke-linecap:round;stroke-linejoin:round;stroke-miterlimit:1.5;">
    <g id="Logo" transform="matrix(1.19908,0,0,1.23685,-62.1633,-43.3903)">
        <g id="Line" transform="matrix(0.833976,0,0,0.808502,41.835,29.1534)">
            <path d="M411.243,347.983C398.199,350.682 372.111,356.079 354.04,357.442C337.008,358.726 319.884,355.512 302.816,356.158C283.563,356.886 256.791,358.056 238.518,361.813C222.72,365.061 207.675,371.635 193.176,378.699C178.129,386.032 163.611,397.466 148.232,405.807C132.248,414.476 115.263,425.818 97.274,430.711C79.285,435.605 59.053,438.51 40.299,435.168C13.318,430.359 -38.638,411.359 -64.616,401.859" style="fill:none;stroke:rgb(242,103,34);stroke-width:21.33px;stroke-dasharray:28.8,1.07,0,42.67;"/>
        </g>
        <g id="Marker" transform="matrix(0.380377,0,0,0.368758,325.036,93.6879)">
            <path d="M182.9,551.7C182.9,551.8 183.1,552 183.1,552C183.1,552 358.3,283 358.3,194.6C358.3,64.5 269.5,7.9 182.9,7.7C96.3,7.9 7.5,64.5 7.5,194.6C7.5,283 182.8,552 182.8,552L182.9,551.7ZM122.2,187.2C122.2,153.6 149.4,126.4 183,126.4C216.6,126.4 243.8,153.6 243.8,187.2C243.8,220.8 216.5,248 182.9,248C149.4,248 122.2,220.8 122.2,187.2Z" style="fill:rgb(242,103,34);fill-rule:nonzero;stroke:rgb(242,103,34);stroke-width:2.19px;stroke-linecap:butt;stroke-miterlimit:2;"/>
        </g>
        <g id="Bike" transform="matrix(0.833976,0,0,0.808502,51.8427,35.0812)">
            <g id="Front-Wheel" serif:id="Front Wheel" transform="matrix(0.78121,0,0,0.78121,142.423,183.193)">
                <circle cx="172.268" cy="103.438" r="64.643" style="fill-opacity:0;stroke:black;stroke-width:25.6px;"/>
            </g>
            <g id="Back-Wheel" serif:id="Back Wheel" transform="matrix(0.78121,0,0,0.78121,-54.5775,237.193)">
                <circle cx="172.268" cy="103.438" r="64.643" style="fill-opacity:0;stroke:black;stroke-width:25.6px;"/>
            </g>
            <g id="Seat-tube" serif:id="Seat tube" transform="matrix(0.976061,-0.0859923,0.0369764,0.970757,-7.09353,18.3851)">
                <path d="M90.665,186.104L180.175,292.383" style="fill:none;stroke:black;stroke-width:21.03px;"/>
            </g>
            <g id="Frame" transform="matrix(1.11962,-1.16936,0.858805,0.822276,-404.116,393.798)">
                <path d="M295.986,205.721L350.923,250.244L295.986,294.767L241.05,250.244L295.986,205.721Z" style="fill-opacity:0;stroke:black;stroke-width:14.08px;"/>
            </g>
            <g id="Saddle" transform="matrix(0.931609,0.018784,0.018784,0.994841,3.1647,-0.8692)">
                <path d="M59.105,196.774L125.655,178.496" style="fill:none;stroke:black;stroke-width:20.36px;"/>
            </g>
            <g id="Headset" transform="matrix(0.997819,-0.0103445,-0.0103445,0.950931,2.3891,11.3326)">
                <path d="M203.202,188.115L197.19,159.597" style="fill:none;stroke:black;stroke-width:20.74px;"/>
            </g>
            <g id="Stem" transform="matrix(0.992544,-0.121886,0.121886,0.992544,-17.6226,26.1026)">
                <path d="M228.252,155.594L197.19,159.597" style="fill:none;stroke:black;stroke-width:20px;"/>
            </g>
            <g id="Fork" transform="matrix(1,0,0,1,3,-3)">
                <path d="M198.714,190.789L274.409,266.484" style="fill:none;stroke:black;stroke-width:20px;"/>
            </g>
            <g id="Drops" transform="matrix(-0.753101,0.234794,-0.230383,-0.738955,293.15,291.206)">
                <path d="M27.933,153.601C16.249,153.601 6.763,163.095 6.763,174.79C6.763,186.484 16.249,195.979 27.933,195.979C16.249,195.979 6.763,186.484 6.763,174.79C6.763,163.095 16.249,153.601 27.933,153.601Z" style="fill-opacity:0;stroke:black;stroke-width:25.59px;"/>
            </g>
        </g>
    </g>
</svg>
