<svg width="193" height="48" xmlns="http://www.w3.org/2000/svg"><g fill="none" fill-rule="evenodd"><rect x="4" y="4" width="185" height="40" rx="2"/><path d="m160.015559 18.7243818-2.441922 4.9692593-2.443453-4.9692593h-3.591422L157.573637 31l6.03056-12.2756182h-3.588638Zm-19.848218 4.3389754c0-.3733794-.128867-.6520871-.38493-.8321067-.255088-.1815975-.603557-.2718225-1.039838-.2718225h-1.634488v2.260645h1.617928c.448527 0 .80131-.0992618 1.056398-.2972117.256063-.1983802.38493-.4743625.38493-.8262256v-.0332785ZM149.175468 18l6.033066 12.2756182h-3.591422l-2.441644-4.9695462-2.440252 4.9695462h-6.712467l-2.114468-3.3003123h-.800196v3.3003123h-3.747287V18.7243818h5.47766c1.003238 0 1.827788.1184831 2.473095.3550188.647115.2361055 1.166199.5587064 1.561427.9657946.342345.3510025.598269.7481932.769998 1.1865518.169641.4403668.255924.9591963.255924 1.5507509v.0349998c0 .8463075-.197614 1.5617959-.593816 2.1443136-.393697.5830915-.932681 1.0465525-1.617371 1.3863664l1.947609 2.9306624L149.175468 18Zm16.791466 0-6.032369 12.2756182h3.591422l2.440947-4.9695462 2.442618 4.9695462H172L165.966934 18Zm-43.479347 3.9899811h3.298758v8.2856371h3.747982v-8.2856371h3.299594v-3.2655993h-10.346334v3.2655993Zm-.13499 3.0706617c.228926.4070883.344015.9029671.344015 1.4849111v.0338523c0 .6044643-.116759 1.1501175-.352783 1.6335168-.234214.4846903-.565982.8940737-.992661 1.2301581-.427653.334937-.945763.5932759-1.553773.7751603-.607732.1826016-1.292283.2736872-2.048921.2736872-1.141707 0-2.207569-.1636672-3.19522-.4872723-.987513-.3254697-1.838226-.8123117-2.553254-1.4599521l2.001188-2.4581646c.607871.4832559 1.249698.830242 1.921028 1.03895.672305.2091384 1.340295.3137076 2.002162.3137076.342206 0 .586857-.044467.736598-.1313929.150716-.0883602.223916-.2097121.223916-.3630515v-.0328482c0-.1665361-.110636-.3056748-.328289-.41383-.217654-.1098766-.627911-.2247736-1.225345-.3455517-.629581-.1329707-1.230494-.2877445-1.800929-.463174-.571271-.1745689-1.072821-.4012071-1.504788-.6767591-.432663-.274261-.776678-.6221077-1.033575-1.0398107-.256063-.4184201-.384095-.9305079-.384095-1.5349722v-.0332785c0-.5506737.103678-1.0627614.312564-1.5352592.206381-.4730715.511291-.8864712.911807-1.2374736.400655-.3522935.89789-.6268413 1.49087-.8262256.590476-.1979499 1.271409-.296638 2.041267-.296638 1.087711 0 2.040432.1323969 2.85719.3973342.816896.2620684 1.550155.6586854 2.202419 1.1865518l-1.825283 2.6084917c-.533836-.3973342-1.097174-.6859393-1.689459-.8679672-.593815-.1818844-1.1495-.27297-1.673733-.27297-.276938 0-.482345.0440367-.615664.1323969-.135825.0880734-.200258.2041179-.200258.3464123v.0328482c0 .1553477.100059.2873142.303935.3976211.203737.1094462.59813.2253473 1.184291.3464123.715724.1311059 1.366319.2913306 1.954985.4772313.586023.1889131 1.092025.4271702 1.512581.7193614.421669.2916175.748149.6394642.977214 1.0479868Z" fill="#FC4C02"/><path d="m27 25.164 1.736.35c-.1120006 1.1013388-.5133299 1.9926633-1.204 2.674-.6906701.6813367-1.5819945 1.022-2.674 1.022-1.2413395 0-2.2563294-.4339957-3.045-1.302-.7886706-.8680043-1.183-2.1653247-1.183-3.892 0-1.6053414.4129959-2.844329 1.239-3.717s1.8176609-1.309 2.975-1.309c1.0173384 0 1.8759965.3196635 2.576.959s1.1106661 1.4816614 1.232 2.527l-1.708.266c-.2426679-1.4840074-.9379943-2.226-2.086-2.226-.7186703 0-1.3183309.2893304-1.799.868-.4806691.5786696-.721 1.4653274-.721 2.66 0 1.2226728.2356643 2.134997.707 2.737.4713357.602003 1.075663.903 1.813.903 1.2226728 0 1.9366656-.8399916 2.142-2.52Zm6.51875 2.604c.5506694 0 .9963316-.2169978 1.337-.651s.511-1.0429961.511-1.827c0-.7840039-.1703316-1.3929978-.511-1.827-.3406684-.4340022-.7863306-.651-1.337-.651-.5600028 0-1.0103316.2146645-1.351.644s-.511 1.0406627-.511 1.834c0 .8026707.1703316 1.4163312.511 1.841.3406684.4246688.7909972.637 1.351.637Zm0 1.442c-.9986717 0-1.8223301-.3453299-2.471-1.036s-.973-1.6519938-.973-2.884c0-1.2133394.3336633-2.1699965 1.001-2.87.6673367-.7000035 1.4816619-1.05 2.443-1.05.9613381 0 1.7709967.3499965 2.429 1.05.6580033.7000035.987 1.6566606.987 2.87 0 1.2320062-.3196635 2.1933299-.959 2.884-.6393365.6906701-1.4583283 1.036-2.457 1.036ZM38.7635 29v-7.42h1.54v.714h.028c.2053344-.2613346.4899982-.4806658.854-.658.3640018-.1773342.7466647-.266 1.148-.266.8213374 0 1.4676643.2449976 1.939.735.4713357.4900024.707 1.1689957.707 2.037V29h-1.582v-4.438c0-1.1480057-.4806619-1.722-1.442-1.722-.4853358 0-.8726652.1399986-1.162.42-.2893348.2800014-.434.6579976-.434 1.134V29h-1.596Zm8.46475 0v-7.42h1.54v.714h.028c.2053344-.2613346.4899982-.4806658.854-.658.3640018-.1773342.7466647-.266 1.148-.266.8213374 0 1.4676643.2449976 1.939.735.4713357.4900024.707 1.1689957.707 2.037V29h-1.582v-4.438c0-1.1480057-.4806619-1.722-1.442-1.722-.4853358 0-.8726652.1399986-1.162.42-.2893348.2800014-.434.6579976-.434 1.134V29h-1.596ZM60.621 26.536l1.148.938c-.7186703 1.1573391-1.7453267 1.736-3.08 1.736-1.0266718 0-1.8643301-.3569964-2.513-1.071-.6486699-.7140036-.973-1.6636607-.973-2.849s.3219968-2.1349964.966-2.849c.6440032-.7140036 1.4606617-1.071 2.45-1.071.9893383 0 1.7989968.3546631 2.429 1.064.6300031.7093369.945 1.6613274.945 2.856v.476h-5.18c.0186668.6160031.1889984 1.1083315.511 1.477.3220016.3686685.7676638.553 1.337.553.270668 0 .5133323-.037333.728-.112.2146677-.074667.4036658-.1866659.567-.336.1633342-.1493341.2869996-.2799994.371-.392.0840004-.1120006.1819994-.2519992.294-.42Zm-3.794-1.974h3.612c-.0280001-.5226693-.1959985-.949665-.504-1.281-.3080015-.331335-.7466638-.497-1.316-.497-.5320027 0-.9566651.1773316-1.274.532s-.4899999.7699976-.518 1.246Zm11.50275 1.484 1.582.336c-.1493341.8960045-.4899973 1.5913309-1.022 2.086-.5320027.4946691-1.2366623.742-2.114.742-1.008005 0-1.8339968-.3453299-2.478-1.036-.6440032-.6906701-.966-1.6519938-.966-2.884 0-1.1853393.3243301-2.1349964.973-2.849.6486699-.7140036 1.4676617-1.071 2.457-1.071.8493376 0 1.5493306.2543308 2.1.763.5506694.5086692.8726662 1.1689959.966 1.981l-1.498.252c-.1586675-1.0360052-.6766623-1.554-1.554-1.554-.5693362 0-1.0219983.2169978-1.358.651-.3360017.4340022-.504 1.0429961-.504 1.827 0 .7840039.1633317 1.3929978.49 1.827.3266683.4340022.7839971.651 1.372.651.8680043 0 1.3859992-.5739943 1.554-1.722Zm3.69075.476v-3.57h-1.12V21.58h1.162v-1.82h1.512v1.82h1.862v1.372h-1.848v3.402c0 .4106687.0629994.6976658.189.861.1260006.1633342.384998.245.777.245h.588V29h-.714c-.8960045 0-1.5213316-.1983314-1.876-.595-.3546684-.3966687-.532-1.024329-.532-1.883ZM81.992 29l-1.638-7.42h1.568l1.05 5.166H83l1.764-5.166h1.442l1.652 5.152h.028l1.19-5.152h1.54L88.838 29h-1.54l-1.806-5.572h-.028L83.518 29h-1.526Zm10.41075 0v-7.42h1.596V29h-1.596Zm-.028-8.638V18.78h1.652v1.582h-1.652Zm4.32075 6.16v-3.57h-1.12V21.58h1.162v-1.82h1.512v1.82h1.862v1.372h-1.848v3.402c0 .4106687.0629994.6976658.189.861.1260006.1633342.384998.245.777.245h.588V29h-.714c-.8960045 0-1.5213316-.1983314-1.876-.595-.3546684-.3966687-.532-1.024329-.532-1.883ZM101.87025 29V18.78h1.596v3.528h.028c.168001-.2520013.443331-.4713324.826-.658.382669-.1866676.769998-.28 1.162-.28.793337 0 1.437331.2426642 1.932.728s.742 1.1479958.742 1.988V29h-1.582v-4.536c0-.4853358-.130665-.8773318-.392-1.176-.261335-.2986682-.639331-.448-1.134-.448-.476002 0-.858665.1399986-1.148.42-.289335.2800014-.434.6393311-.434 1.078V29h-1.596Z" fill="#999"/></g></svg>