<?xml version="1.0" encoding="UTF-8" standalone="no"?>
<!DOCTYPE svg PUBLIC "-//W3C//DTD SVG 1.1//EN" "http://www.w3.org/Graphics/SVG/1.1/DTD/svg11.dtd">
<svg width="100%" height="100%" viewBox="0 0 31 48" version="1.1" xmlns="http://www.w3.org/2000/svg" xmlns:xlink="http://www.w3.org/1999/xlink" xml:space="preserve" xmlns:serif="http://www.serif.com/" style="fill-rule:evenodd;clip-rule:evenodd;stroke-linejoin:round;stroke-miterlimit:2;">
    <g id="Marker" transform="matrix(0.0881867,0,0,0.0881867,-0.62934,-0.679037)">
        <path d="M182.9,551.7C182.9,551.8 183.1,552 183.1,552C183.1,552 358.3,283 358.3,194.6C358.3,64.5 269.5,7.9 182.9,7.7C96.3,7.9 7.5,64.5 7.5,194.6C7.5,283 182.8,552 182.8,552L182.9,551.7Z" style="fill:rgb(242,103,34)"/>
        <path d="M122.2,187.2C122.2,153.6 149.4,126.4 183,126.4C216.6,126.4 243.8,153.6 243.8,187.2C243.8,220.8 216.5,248 182.9,248C149.4,248 122.2,220.8 122.2,187.2Z" style="fill:rgb(256, 256, 256)"/>
    </g>
</svg>
