<svg viewBox="0 0 512 512" xmlns="http://www.w3.org/2000/svg" xml:space="preserve" fill-rule="evenodd" clip-rule="evenodd" stroke-linecap="round" stroke-linejoin="round" stroke-miterlimit="1.5"><path d="M411.243 347.983c-13.044 2.699-39.132 8.096-57.203 9.459-17.032 1.284-34.156-1.93-51.224-1.284-19.253.728-46.025 1.898-64.298 5.655-15.798 3.248-30.843 9.822-45.342 16.886-15.047 7.333-29.565 18.767-44.944 27.108-15.984 8.669-32.969 20.011-50.958 24.904-17.989 4.894-38.221 7.799-56.975 4.457-26.981-4.809-78.937-23.809-104.915-33.309" fill="none" stroke="#f26722" stroke-width="21.33" stroke-dasharray="28.8 1.07 0 42.67" transform="translate(-11.9997882 -7.33191721)"/><path d="M182.9 551.7c0 .1.2.3.2.3s175.2-269 175.2-357.4c0-130.1-88.8-186.7-175.4-186.9C96.3 7.9 7.5 64.5 7.5 194.6 7.5 283 182.8 552 182.8 552l.1-.3Zm-60.7-364.5c0-33.6 27.2-60.8 60.8-60.8 33.6 0 60.8 27.2 60.8 60.8 0 33.6-27.3 60.8-60.9 60.8-33.5 0-60.7-27.2-60.7-60.8Z" fill="#f26722" fill-rule="nonzero" stroke="#f26722" stroke-width="2.19" stroke-linecap="butt" stroke-miterlimit="2" transform="translate(327.58086688 72.48757911) scale(.4561)"/><circle cx="172.268" cy="103.438" r="64.643" stroke="#000" stroke-width="25.6" fill="none" transform="translate(142.42380616 183.19209425) scale(.78121)"/><circle cx="172.268" cy="103.438" r="64.643" stroke="#000" stroke-width="25.6" fill="none" transform="translate(-54.57747043 237.19186198) scale(.78121)"/><path d="m90.665 186.104 89.51 106.279" fill="none" stroke="#000" stroke-width="21.03" transform="matrix(.97606 -.086 .03698 .97075 -7.09331325 18.38490314)"/><path d="m295.986 205.721 54.937 44.523-54.937 44.523-54.936-44.523 54.936-44.523Z" stroke="#000" stroke-width="14.08" fill="none" transform="matrix(1.11962 -1.16935 .8588 .82227 -404.11734834 393.79618838)"/><path d="m59.105 196.774 66.55-18.278" fill="none" stroke="#000" stroke-width="20.36" transform="matrix(.93161 .01878 .01878 .99484 3.1649572 -.86931404)"/><path d="m203.202 188.115-6.012-28.518" fill="none" stroke="#000" stroke-width="20.74" transform="matrix(.99782 -.01034 -.01034 .95093 2.38935413 11.33243348)"/><path d="m228.252 155.594-31.062 4.003" fill="none" stroke="#000" stroke-width="20" transform="rotate(-6.99917 204.55050819 157.08806062)"/><path d="m198.714 190.789 75.695 75.695" fill="none" stroke="#000" stroke-width="20" transform="translate(3.00025654 -3.00010488)"/><path d="M27.933 153.601c-11.684 0-21.17 9.494-21.17 21.189 0 11.694 9.486 21.189 21.17 21.189-11.684 0-21.17-9.495-21.17-21.189 0-11.695 9.486-21.189 21.17-21.189Z" stroke="#000" stroke-width="25.59" fill="none" transform="matrix(-.7531 .2348 -.23038 -.73895 293.15140034 291.20462966)"/></svg>